<?xml version="1.0" encoding="UTF-8"?>
<svg width="120" height="120" viewBox="0 0 120 120" fill="none" xmlns="http://www.w3.org/2000/svg">
  <defs>
    <linearGradient id="calGrad" x1="0%" y1="0%" x2="100%" y2="100%">
      <stop offset="0%" style="stop-color:#3B82F6"/>
      <stop offset="100%" style="stop-color:#8B5CF6"/>
    </linearGradient>
  </defs>
  
  <!-- Calendar Body -->
  <rect x="15" y="25" width="90" height="80" rx="12" fill="url(#calGrad)"/>
  
  <!-- Calendar Header Holes -->
  <rect x="30" y="15" width="10" height="20" rx="5" fill="#1E293B"/>
  <rect x="80" y="15" width="10" height="20" rx="5" fill="#1E293B"/>
  
  <!-- Calendar Sheet -->
  <rect x="22" y="45" width="76" height="52" rx="8" fill="white"/>
  
  <!-- Grid Lines -->
  <line x1="22" y1="60" x2="98" y2="60" stroke="#E2E8F0" stroke-width="1"/>
  <line x1="22" y1="75" x2="98" y2="75" stroke="#E2E8F0" stroke-width="1"/>
  
  <!-- Date Dots -->
  <circle cx="35" cy="67" r="4" fill="#E2E8F0"/>
  <circle cx="50" cy="67" r="4" fill="#E2E8F0"/>
  <circle cx="65" cy="67" r="4" fill="#8B5CF6"/>
  <circle cx="80" cy="67" r="4" fill="#E2E8F0"/>
  
  <circle cx="35" cy="85" r="4" fill="#3B82F6"/>
  <circle cx="50" cy="85" r="4" fill="#E2E8F0"/>
  <circle cx="65" cy="85" r="4" fill="#E2E8F0"/>
  <circle cx="80" cy="85" r="4" fill="#10B981"/>
  
  <!-- Sparkle -->
  <path d="M100 20l2 6 6 2-6 2-2 6-2-6-6-2 6-2z" fill="#FBBF24"/>
</svg>
