<?xml version="1.0" encoding="UTF-8"?>
<svg width="120" height="120" viewBox="0 0 120 120" fill="none" xmlns="http://www.w3.org/2000/svg">
  <defs>
    <linearGradient id="chatGrad" x1="0%" y1="0%" x2="100%" y2="100%">
      <stop offset="0%" style="stop-color:#10B981"/>
      <stop offset="100%" style="stop-color:#3B82F6"/>
    </linearGradient>
  </defs>
  
  <!-- Main Chat Bubble -->
  <path d="M20 30h55c8 0 15 7 15 15v30c0 8-7 15-15 15H45l-15 15v-15H20c-8 0-15-7-15-15V45c0-8 7-15 15-15z" 
        fill="url(#chatGrad)"/>
  
  <!-- Typing Dots -->
  <circle cx="35" cy="55" r="6" fill="white" opacity="0.9"/>
  <circle cx="55" cy="55" r="6" fill="white" opacity="0.7"/>
  <circle cx="75" cy="55" r="6" fill="white" opacity="0.5"/>
  
  <!-- Second Chat Bubble (smaller, overlapping) -->
  <path d="M60 50h35c6 0 10 4 10 10v20c0 6-4 10-10 10H80l-8 8v-8H60c-6 0-10-4-10-10V60c0-6 4-10 10-10z" 
        fill="#8B5CF6" opacity="0.8"/>
  
  <!-- Reply lines -->
  <rect x="65" y="62" width="30" height="4" rx="2" fill="white" opacity="0.8"/>
  <rect x="65" y="72" width="20" height="4" rx="2" fill="white" opacity="0.6"/>
  
  <!-- Heart reaction -->
  <circle cx="100" cy="45" r="12" fill="#EC4899"/>
  <path d="M100 42c-2-3-6-3-8 0-2-3-6-3-8 0 0 4 8 10 8 10s8-6 8-10z" fill="white"/>
  
  <!-- Sparkle -->
  <path d="M25 20l2 6 6 2-6 2-2 6-2-6-6-2 6-2z" fill="#FBBF24"/>
</svg>
