<?xml version="1.0" encoding="UTF-8"?>
<svg width="400" height="400" viewBox="0 0 400 400" fill="none" xmlns="http://www.w3.org/2000/svg">
  <!-- Background decorative elements -->
  <defs>
    <linearGradient id="purpleBlue" x1="0%" y1="0%" x2="100%" y2="100%">
      <stop offset="0%" style="stop-color:#8B5CF6;stop-opacity:1" />
      <stop offset="100%" style="stop-color:#3B82F6;stop-opacity:1" />
    </linearGradient>
    <linearGradient id="pinkPurple" x1="0%" y1="0%" x2="100%" y2="100%">
      <stop offset="0%" style="stop-color:#EC4899;stop-opacity:1" />
      <stop offset="100%" style="stop-color:#8B5CF6;stop-opacity:1" />
    </linearGradient>
    <linearGradient id="blueGreen" x1="0%" y1="0%" x2="100%" y2="100%">
      <stop offset="0%" style="stop-color:#3B82F6;stop-opacity:1" />
      <stop offset="100%" style="stop-color:#10B981;stop-opacity:1" />
    </linearGradient>
  </defs>
  
  <!-- Main Board -->
  <rect x="80" y="100" width="240" height="200" rx="16" fill="#1E293B"/>
  <rect x="80" y="100" width="240" height="200" rx="16" stroke="url(#purpleBlue)" stroke-width="2"/>
  
  <!-- Board Header -->
  <rect x="80" y="100" width="240" height="40" rx="16" fill="url(#purpleBlue)"/>
  <rect x="80" y="120" width="240" height="20" fill="url(#purpleBlue)"/>
  <circle cx="100" cy="120" r="6" fill="#fff" opacity="0.8"/>
  <circle cx="118" cy="120" r="6" fill="#fff" opacity="0.6"/>
  <circle cx="136" cy="120" r="6" fill="#fff" opacity="0.4"/>
  
  <!-- Task Cards -->
  <rect x="95" y="155" width="65" height="55" rx="8" fill="#334155"/>
  <rect x="97" y="162" width="40" height="4" rx="2" fill="#8B5CF6"/>
  <rect x="97" y="172" width="55" height="3" rx="1.5" fill="#64748B"/>
  <rect x="97" y="180" width="45" height="3" rx="1.5" fill="#64748B"/>
  <circle cx="152" cy="200" r="8" fill="#10B981"/>
  <path d="M148 200L151 203L157 197" stroke="white" stroke-width="2" stroke-linecap="round" stroke-linejoin="round"/>
  
  <rect x="168" y="155" width="65" height="55" rx="8" fill="#334155"/>
  <rect x="170" y="162" width="40" height="4" rx="2" fill="#EC4899"/>
  <rect x="170" y="172" width="55" height="3" rx="1.5" fill="#64748B"/>
  <rect x="170" y="180" width="45" height="3" rx="1.5" fill="#64748B"/>
  <circle cx="225" cy="200" r="8" fill="#F59E0B"/>
  
  <rect x="241" y="155" width="65" height="55" rx="8" fill="#334155"/>
  <rect x="243" y="162" width="40" height="4" rx="2" fill="#3B82F6"/>
  <rect x="243" y="172" width="55" height="3" rx="1.5" fill="#64748B"/>
  <rect x="243" y="180" width="45" height="3" rx="1.5" fill="#64748B"/>
  
  <!-- More Task Cards Row 2 -->
  <rect x="95" y="220" width="65" height="55" rx="8" fill="#334155"/>
  <rect x="97" y="227" width="35" height="4" rx="2" fill="#10B981"/>
  <rect x="97" y="237" width="55" height="3" rx="1.5" fill="#64748B"/>
  <rect x="97" y="245" width="40" height="3" rx="1.5" fill="#64748B"/>
  
  <rect x="168" y="220" width="65" height="55" rx="8" fill="#334155"/>
  <rect x="170" y="227" width="50" height="4" rx="2" fill="#F59E0B"/>
  <rect x="170" y="237" width="55" height="3" rx="1.5" fill="#64748B"/>
  <rect x="170" y="245" width="35" height="3" rx="1.5" fill="#64748B"/>
  
  <!-- Floating Elements -->
  <!-- Calendar -->
  <g transform="translate(320, 80)">
    <rect width="60" height="60" rx="12" fill="url(#blueGreen)"/>
    <rect x="8" y="18" width="44" height="35" rx="6" fill="white"/>
    <rect x="15" y="8" width="6" height="10" rx="3" fill="white"/>
    <rect x="39" y="8" width="6" height="10" rx="3" fill="white"/>
    <circle cx="20" cy="38" r="4" fill="#3B82F6"/>
    <circle cx="30" cy="38" r="4" fill="#10B981"/>
    <circle cx="40" cy="38" r="4" fill="#8B5CF6"/>
  </g>
  
  <!-- Chat Bubble -->
  <g transform="translate(20, 150)">
    <rect width="55" height="45" rx="12" fill="url(#pinkPurple)"/>
    <circle cx="16" cy="22" r="5" fill="white" opacity="0.9"/>
    <circle cx="28" cy="22" r="5" fill="white" opacity="0.7"/>
    <circle cx="40" cy="22" r="5" fill="white" opacity="0.5"/>
  </g>
  
  <!-- Bell Notification -->
  <g transform="translate(340, 200)">
    <circle cx="25" cy="25" r="25" fill="url(#purpleBlue)"/>
    <path d="M25 15c-5 0-9 4-9 9v6l-2 2v1h22v-1l-2-2v-6c0-5-4-9-9-9z" fill="white"/>
    <circle cx="25" cy="36" r="3" fill="white"/>
    <circle cx="36" cy="14" r="8" fill="#EF4444"/>
    <text x="36" y="18" text-anchor="middle" fill="white" font-size="10" font-weight="bold">3</text>
  </g>
  
  <!-- Stars/Sparkles -->
  <g fill="#FBBF24">
    <path d="M50 50l2 6 6 2-6 2-2 6-2-6-6-2 6-2z"/>
    <path d="M350 320l2 6 6 2-6 2-2 6-2-6-6-2 6-2z"/>
    <path d="M30 280l1.5 4.5 4.5 1.5-4.5 1.5-1.5 4.5-1.5-4.5-4.5-1.5 4.5-1.5z"/>
    <path d="M370 100l1.5 4.5 4.5 1.5-4.5 1.5-1.5 4.5-1.5-4.5-4.5-1.5 4.5-1.5z"/>
  </g>
  
  <!-- Floating Dots -->
  <circle cx="60" cy="120" r="4" fill="#8B5CF6" opacity="0.6"/>
  <circle cx="350" cy="270" r="5" fill="#3B82F6" opacity="0.5"/>
  <circle cx="40" cy="220" r="3" fill="#EC4899" opacity="0.7"/>
  <circle cx="360" cy="170" r="4" fill="#10B981" opacity="0.5"/>
</svg>
